<svg xmlns="http://www.w3.org/2000/svg" xmlns:xlink="http://www.w3.org/1999/xlink" width="280.842" height="61.203" viewBox="0 0 280.842 61.203">
  <defs>
    <clipPath id="clip-path">
      <path id="Path_10" data-name="Path 10" d="M79.37,3.785,54.9,63.022a.807.807,0,0,0,.777,1.068h48.361a.807.807,0,0,0,.777-1.068L80.924,3.785A.846.846,0,0,0,79.37,3.785Z" transform="translate(-54.848 -3.275)"/>
    </clipPath>
    <linearGradient id="linear-gradient" x1="-0.185" y1="0.194" x2="0.678" y2="0.773" gradientUnits="objectBoundingBox">
      <stop offset="0" stop-color="#e97100"/>
      <stop offset="0.123" stop-color="#ec5a37"/>
      <stop offset="0.245" stop-color="#ef4667"/>
      <stop offset="0.353" stop-color="#f03889"/>
      <stop offset="0.442" stop-color="#f22f9e"/>
      <stop offset="0.5" stop-color="#f22ca6"/>
      <stop offset="1" stop-color="#7400d4"/>
    </linearGradient>
    <linearGradient id="linear-gradient-2" x1="1.036" y1="0.279" x2="0.366" y2="0.902" gradientUnits="objectBoundingBox">
      <stop offset="0" stop-color="#0078d4"/>
      <stop offset="1" stop-color="#36d1dc"/>
    </linearGradient>
    <linearGradient id="linear-gradient-3" x1="0.5" y1="1.999" x2="0.5" y2="-0.508" gradientUnits="objectBoundingBox">
      <stop offset="0.247" stop-color="#5617ce"/>
      <stop offset="0.567" stop-color="#4545ef"/>
      <stop offset="0.668" stop-color="#784ef4"/>
      <stop offset="0.775" stop-color="#a856f9"/>
      <stop offset="0.871" stop-color="#ca5cfc"/>
      <stop offset="0.949" stop-color="#df60fe"/>
      <stop offset="1" stop-color="#e761ff"/>
    </linearGradient>
  </defs>
  <g id="Group_147" data-name="Group 147" transform="translate(0 -3.275)">
    <g id="Group_2" data-name="Group 2" transform="translate(0 14.758)">
      <path id="Path_3" data-name="Path 3" d="M0,15.7H17.48a32.345,32.345,0,0,1,10.876,1.748A25.7,25.7,0,0,1,36.8,22.3a21.3,21.3,0,0,1,5.438,7.575,25.378,25.378,0,0,1,1.942,9.905c0,7.186-2.428,13.013-7.38,17.48s-11.362,6.6-19.325,6.6H0ZM28.939,28.713c-2.913-2.622-6.7-3.982-11.459-3.982h-6.7v29.23h6.7a19.253,19.253,0,0,0,3.4-.291,16.171,16.171,0,0,0,3.108-.777,13.842,13.842,0,0,0,2.719-1.262,10.258,10.258,0,0,0,2.234-1.651,13.282,13.282,0,0,0,1.845-2.136,15.252,15.252,0,0,0,1.36-2.428,12.784,12.784,0,0,0,.874-2.913,17.881,17.881,0,0,0,.291-3.2A13.627,13.627,0,0,0,28.939,28.713Z" transform="translate(0 -15.117)" fill="#fff"/>
      <path id="Path_4" data-name="Path 4" d="M147.039,53.473a19.978,19.978,0,0,0,2.816-.68,14.3,14.3,0,0,0,2.136-.971,12.133,12.133,0,0,0,1.651-1.165,14.935,14.935,0,0,0,1.165-1.262,4.064,4.064,0,0,0,.777-1.165,8.984,8.984,0,0,0,.486-.971c.1-.291.194-.583.291-.971l10.585,4.467a17.317,17.317,0,0,1-1.651,3.884,18.893,18.893,0,0,1-2.913,3.787,21.512,21.512,0,0,1-4.37,3.3,25.453,25.453,0,0,1-6.215,2.234,35.884,35.884,0,0,1-8.254.874c-7.38,0-13.5-2.331-18.257-6.895A23.637,23.637,0,0,1,118.1,40.266a23.716,23.716,0,0,1,6.992-17.48c4.758-4.758,10.973-7.186,18.548-7.186a28.859,28.859,0,0,1,14.178,3.3,19.669,19.669,0,0,1,8.643,8.934l-9.711,5.632c-1.942-4.855-6.312-7.186-13.013-7.186a18.348,18.348,0,0,0-5.827.874,11.1,11.1,0,0,0-4.467,2.719,11.33,11.33,0,0,0-2.816,4.37,16.136,16.136,0,0,0-.971,5.924c0,4.273,1.262,7.672,3.884,10.2a14.124,14.124,0,0,0,10,3.69C144.805,53.764,145.971,53.667,147.039,53.473Z" transform="translate(-3.413 -15.114)" fill="#fff"/>
      <path id="Path_5" data-name="Path 5" d="M186.6,64.238V15.1h21.655a22.237,22.237,0,0,1,6.409.874,14.7,14.7,0,0,1,5.05,2.622,11.038,11.038,0,0,1,3.3,4.273,13.732,13.732,0,0,1,1.165,5.729,11.041,11.041,0,0,1-1.845,6.409,9.094,9.094,0,0,1-4.758,3.593,9.021,9.021,0,0,1,3.982,2.234,10.78,10.78,0,0,1,2.525,4.079,15.237,15.237,0,0,1,.777,5.244c-.1,4.661-1.554,8.157-4.273,10.585-2.816,2.428-6.6,3.593-11.556,3.593H186.6Zm10.682-40.495V34.328h9.031a12.381,12.381,0,0,0,1.942-.1A11.291,11.291,0,0,0,210,33.842a7.519,7.519,0,0,0,1.554-.68,3.885,3.885,0,0,0,1.165-.971,3.13,3.13,0,0,0,.777-1.36,4.7,4.7,0,0,0,.291-1.748,4.819,4.819,0,0,0-1.068-3.108A5.746,5.746,0,0,0,210,24.228a10.968,10.968,0,0,0-3.69-.486h-9.031Zm.1,19.325V54.041H206.7a10.013,10.013,0,0,0,5.438-1.36,4.439,4.439,0,0,0,2.136-4.176,4.643,4.643,0,0,0-2.136-4.176,10.5,10.5,0,0,0-5.438-1.36h-9.323Z" transform="translate(-5.393 -15.1)" fill="#fff"/>
      <path id="Path_6" data-name="Path 6" d="M260.912,46.961,244.5,15.4h11.556L266.35,36.958,276.158,15.5h11.75l-16.12,31.561v16.9H260.815V46.961Z" transform="translate(-7.066 -15.109)" fill="#fff"/>
    </g>
    <g id="Group_4" data-name="Group 4" transform="translate(53.263 3.275)">
      <g id="Group_3" data-name="Group 3" clip-path="url(#clip-path)">
        <path id="Path_7" data-name="Path 7" d="M80.6,0V45.447l30.978,26.025Z" transform="translate(-55.592 -3.18)" fill="url(#linear-gradient)"/>
        <path id="Path_8" data-name="Path 8" d="M79.969.4l-.291,45.059L48.7,71.484Z" transform="translate(-54.67 -3.192)" fill="url(#linear-gradient-2)"/>
        <path id="Path_9" data-name="Path 9" d="M79.562,46.8l34.862,26.025H44.7Z" transform="translate(-54.555 -4.533)" fill="url(#linear-gradient-3)"/>
      </g>
    </g>
  </g>
</svg>
